<svg width="256" height="256" viewBox="0 0 256 256" fill="none" xmlns="http://www.w3.org/2000/svg">
<path d="M214.267 71.5L151.698 15V71.5H214.267Z" fill="url(#paint0_linear_2_65)"/>
<path fill-rule="evenodd" clip-rule="evenodd" d="M41 231.583V15H151.698V71.5V85.625L214.267 71.5V231.583H45.813H41Z" fill="url(#paint1_linear_2_65)"/>
<path d="M214.267 71.5H151.698V85.625L214.267 71.5Z" fill="#004CA6"/>
<path d="M214.267 241V231.583H45.813V241H214.267Z" fill="url(#paint2_linear_2_65)"/>
<path d="M69.1668 184.5H54.2767V143.409H69.2898C73.5148 143.409 77.1519 144.232 80.201 145.877C83.2502 147.509 85.5951 149.856 87.2359 152.919C88.8904 155.982 89.7176 159.647 89.7176 163.914C89.7176 168.195 88.8904 171.873 87.2359 174.95C85.5951 178.026 83.2365 180.387 80.16 182.032C77.0972 183.677 73.4328 184.5 69.1668 184.5ZM63.1574 177.056H68.7976C71.4228 177.056 73.6311 176.602 75.4223 175.692C77.2271 174.769 78.5808 173.344 79.4832 171.418C80.3993 169.479 80.8573 166.978 80.8573 163.914C80.8573 160.878 80.3993 158.397 79.4832 156.471C78.5808 154.545 77.234 153.127 75.4428 152.217C73.6516 151.308 71.4434 150.853 68.8181 150.853H63.1574V177.056Z" fill="white"/>
<path d="M134.896 163.955C134.896 168.435 134.027 172.248 132.291 175.391C130.568 178.534 128.216 180.935 125.235 182.594C122.268 184.239 118.932 185.062 115.227 185.062C111.494 185.062 108.144 184.232 105.177 182.574C102.21 180.915 99.8648 178.514 98.142 175.371C96.4192 172.228 95.5577 168.422 95.5577 163.955C95.5577 159.474 96.4192 155.661 98.142 152.518C99.8648 149.375 102.21 146.98 105.177 145.335C108.144 143.677 111.494 142.847 115.227 142.847C118.932 142.847 122.268 143.677 125.235 145.335C128.216 146.98 130.568 149.375 132.291 152.518C134.027 155.661 134.896 159.474 134.896 163.955ZM125.892 163.955C125.892 161.052 125.447 158.604 124.559 156.611C123.683 154.618 122.446 153.107 120.846 152.077C119.247 151.047 117.373 150.532 115.227 150.532C113.08 150.532 111.207 151.047 109.607 152.077C108.007 153.107 106.763 154.618 105.874 156.611C104.999 158.604 104.562 161.052 104.562 163.955C104.562 166.857 104.999 169.305 105.874 171.298C106.763 173.291 108.007 174.802 109.607 175.832C111.207 176.862 113.08 177.377 115.227 177.377C117.373 177.377 119.247 176.862 120.846 175.832C122.446 174.802 123.683 173.291 124.559 171.298C125.447 169.305 125.892 166.857 125.892 163.955Z" fill="white"/>
<path d="M178.535 157.795H169.552C169.388 156.658 169.053 155.648 168.547 154.765C168.041 153.869 167.392 153.107 166.599 152.478C165.805 151.849 164.889 151.368 163.85 151.033C162.825 150.699 161.71 150.532 160.507 150.532C158.333 150.532 156.439 151.06 154.826 152.117C153.212 153.16 151.961 154.685 151.073 156.691C150.184 158.684 149.739 161.105 149.739 163.955C149.739 166.884 150.184 169.345 151.073 171.338C151.975 173.331 153.233 174.836 154.846 175.852C156.46 176.869 158.326 177.377 160.446 177.377C161.635 177.377 162.736 177.223 163.748 176.916C164.773 176.608 165.682 176.16 166.475 175.572C167.268 174.97 167.925 174.241 168.444 173.385C168.978 172.529 169.347 171.552 169.552 170.455L178.535 170.495C178.303 172.381 177.722 174.201 176.792 175.953C175.876 177.692 174.638 179.25 173.08 180.628C171.535 181.992 169.689 183.075 167.542 183.878C165.409 184.667 162.996 185.062 160.302 185.062C156.556 185.062 153.206 184.232 150.252 182.574C147.312 180.915 144.988 178.514 143.279 175.371C141.583 172.228 140.736 168.422 140.736 163.955C140.736 159.474 141.597 155.661 143.32 152.518C145.043 149.375 147.381 146.98 150.334 145.335C153.288 143.677 156.61 142.847 160.302 142.847C162.736 142.847 164.992 143.182 167.07 143.851C169.162 144.519 171.015 145.496 172.628 146.78C174.242 148.051 175.554 149.609 176.566 151.455C177.592 153.301 178.248 155.414 178.535 157.795Z" fill="white"/>
<defs>
<linearGradient id="paint0_linear_2_65" x1="127.633" y1="15" x2="127.633" y2="241" gradientUnits="userSpaceOnUse">
<stop stop-color="#A4E2F1"/>
<stop offset="1" stop-color="#5F828B"/>
</linearGradient>
<linearGradient id="paint1_linear_2_65" x1="127.633" y1="15" x2="127.633" y2="241" gradientUnits="userSpaceOnUse">
<stop stop-color="#0075FF"/>
<stop offset="1" stop-color="#004699"/>
</linearGradient>
<linearGradient id="paint2_linear_2_65" x1="127.633" y1="15" x2="127.633" y2="241" gradientUnits="userSpaceOnUse">
<stop stop-color="#232323"/>
<stop offset="1" stop-color="#2C2C2C" stop-opacity="0.22"/>
</linearGradient>
</defs>
</svg>
