<svg width="256" height="256" viewBox="0 0 256 256" fill="none" xmlns="http://www.w3.org/2000/svg">
<path d="M212.5 71.5L151.292 15V71.5H212.5Z" fill="url(#paint0_linear_2_63)"/>
<path fill-rule="evenodd" clip-rule="evenodd" d="M43 231.583V15H151.292V71.5V85.625L212.5 71.5V231.583H47.7083H43Z" fill="url(#paint1_linear_2_63)"/>
<path d="M212.5 71.5H151.292V85.625L212.5 71.5Z" fill="#3B1C63"/>
<path d="M212.5 241V231.583H47.7083V241H212.5Z" fill="url(#paint2_linear_2_63)"/>
<path d="M66.5851 180.493C61.3499 176.405 58.3296 171.089 57.5242 164.545C56.7189 158.001 58.36 152.112 62.4478 146.877C66.5356 141.642 71.8514 138.621 78.3954 137.816C84.9393 137.011 90.8289 138.652 96.064 142.739L124.002 164.554C127.777 167.502 129.954 171.329 130.533 176.035C131.113 180.741 129.928 184.982 126.98 188.758C124.033 192.533 120.205 194.71 115.499 195.289C110.793 195.869 106.552 194.684 102.777 191.736L76.3493 171.101C74.0338 169.293 72.6995 166.955 72.3464 164.086C71.9934 161.218 72.7209 158.626 74.5289 156.31C76.337 153.994 78.6753 152.66 81.5439 152.307C84.4124 151.954 87.0045 152.682 89.3201 154.49L117.258 176.304L112.541 182.345L84.6034 160.53C83.949 160.019 83.2409 159.811 82.4789 159.904C81.7169 159.998 81.0804 160.372 80.5695 161.027C80.0585 161.681 79.8499 162.389 79.9437 163.151C80.0375 163.913 80.4116 164.55 81.066 165.061L107.493 185.696C109.647 187.296 112.014 187.949 114.594 187.654C117.174 187.36 119.289 186.155 120.94 184.041C122.591 181.927 123.256 179.57 122.936 176.97C122.616 174.371 121.399 172.245 119.285 170.595L91.3474 148.78C87.8127 145.939 83.8169 144.804 79.3599 145.375C74.9029 145.947 71.279 148.019 68.4884 151.593C65.737 155.117 64.6442 159.085 65.21 163.497C65.7757 167.909 67.8063 171.561 71.3017 174.452L100.749 197.446L96.0328 203.487L66.5851 180.493Z" fill="white"/>
<defs>
<linearGradient id="paint0_linear_2_63" x1="127.75" y1="15" x2="127.75" y2="241" gradientUnits="userSpaceOnUse">
<stop stop-color="#AAA4F1"/>
<stop offset="1" stop-color="#625F8B"/>
</linearGradient>
<linearGradient id="paint1_linear_2_63" x1="127.75" y1="15" x2="127.75" y2="241" gradientUnits="userSpaceOnUse">
<stop stop-color="#793AC9"/>
<stop offset="1" stop-color="#3B1C63"/>
</linearGradient>
<linearGradient id="paint2_linear_2_63" x1="127.75" y1="15" x2="127.75" y2="241" gradientUnits="userSpaceOnUse">
<stop stop-color="#232323"/>
<stop offset="1" stop-color="#2C2C2C" stop-opacity="0.22"/>
</linearGradient>
</defs>
</svg>
