<svg width="256" height="256" viewBox="0 0 256 256" fill="none" xmlns="http://www.w3.org/2000/svg">
<path d="M214.267 71.5L151.698 15V71.5H214.267Z" fill="url(#paint0_linear_2_67)"/>
<path fill-rule="evenodd" clip-rule="evenodd" d="M41 231.583V15H151.698V71.5V85.625L214.267 71.5V231.583H45.813H41Z" fill="url(#paint1_linear_2_67)"/>
<path d="M214.267 71.5H151.698V85.625L214.267 71.5Z" fill="#A60C00"/>
<path d="M214.267 241V231.583H45.813V241H214.267Z" fill="url(#paint2_linear_2_67)"/>
<path d="M54.2767 184.5V143.409H70.8486C74.0344 143.409 76.7486 144.004 78.991 145.195C81.2334 146.372 82.9425 148.01 84.1184 150.11C85.308 152.197 85.9028 154.605 85.9028 157.333C85.9028 160.062 85.3011 162.47 84.0979 164.556C82.8947 166.643 81.1513 168.268 78.8679 169.432C76.5982 170.596 73.8498 171.178 70.623 171.178H60.0604V164.215H69.1873C70.8964 164.215 72.3048 163.928 73.4123 163.353C74.5335 162.764 75.3676 161.955 75.9145 160.925C76.4751 159.882 76.7554 158.684 76.7554 157.333C76.7554 155.969 76.4751 154.779 75.9145 153.762C75.3676 152.732 74.5335 151.936 73.4123 151.374C72.2911 150.799 70.8691 150.512 69.1463 150.512H63.1574V184.5H54.2767Z" fill="white"/>
<path d="M106.561 184.5H91.6711V143.409H106.684C110.909 143.409 114.546 144.232 117.596 145.877C120.645 147.509 122.99 149.856 124.63 152.919C126.285 155.982 127.112 159.647 127.112 163.914C127.112 168.195 126.285 171.873 124.63 174.95C122.99 178.026 120.631 180.387 117.554 182.032C114.492 183.677 110.827 184.5 106.561 184.5ZM100.552 177.056H106.192C108.817 177.056 111.026 176.602 112.817 175.692C114.622 174.769 115.975 173.344 116.878 171.418C117.794 169.479 118.252 166.978 118.252 163.914C118.252 160.878 117.794 158.397 116.878 156.471C115.975 154.545 114.628 153.127 112.837 152.217C111.046 151.308 108.838 150.853 106.213 150.853H100.552V177.056Z" fill="white"/>
<path d="M133.691 184.5V143.409H161.502V150.572H142.571V160.363H159.656V167.526H142.571V184.5H133.691Z" fill="white"/>
<defs>
<linearGradient id="paint0_linear_2_67" x1="127.633" y1="15" x2="127.633" y2="241" gradientUnits="userSpaceOnUse">
<stop stop-color="#FFA6A3"/>
<stop offset="1" stop-color="#996462"/>
</linearGradient>
<linearGradient id="paint1_linear_2_67" x1="127.633" y1="15" x2="127.633" y2="241" gradientUnits="userSpaceOnUse">
<stop stop-color="#FF1200"/>
<stop offset="1" stop-color="#990B00"/>
</linearGradient>
<linearGradient id="paint2_linear_2_67" x1="127.633" y1="15" x2="127.633" y2="241" gradientUnits="userSpaceOnUse">
<stop stop-color="#232323"/>
<stop offset="1" stop-color="#2C2C2C" stop-opacity="0.22"/>
</linearGradient>
</defs>
</svg>
