<svg width="256" height="256" viewBox="0 0 256 256" fill="none" xmlns="http://www.w3.org/2000/svg">
<path d="M212.5 71.5L151.292 15V71.5H212.5Z" fill="url(#paint0_linear_2_70)"/>
<path fill-rule="evenodd" clip-rule="evenodd" d="M43 231.583V15H151.292V71.5V85.625L212.5 71.5V231.583H47.7083H43Z" fill="url(#paint1_linear_2_70)"/>
<path d="M212.5 71.5H151.292V85.625L212.5 71.5Z" fill="#A64C00"/>
<path d="M212.5 241V231.583H47.7083V241H212.5Z" fill="url(#paint2_linear_2_70)"/>
<path d="M55.988 184.5V143.409H72.1997C75.3163 143.409 77.9714 144.004 80.1651 145.195C82.3587 146.372 84.0307 148.01 85.1811 150.11C86.3448 152.197 86.9266 154.605 86.9266 157.333C86.9266 160.062 86.3381 162.47 85.161 164.556C83.9839 166.643 82.2785 168.268 80.0447 169.432C77.8243 170.596 75.1357 171.178 71.979 171.178H61.6461V164.215H70.5745C72.2465 164.215 73.6242 163.928 74.7077 163.353C75.8045 162.764 76.6204 161.955 77.1555 160.925C77.7039 159.882 77.9781 158.684 77.9781 157.333C77.9781 155.969 77.7039 154.779 77.1555 153.762C76.6204 152.732 75.8045 151.936 74.7077 151.374C73.6109 150.799 72.2198 150.512 70.5344 150.512H64.6757V184.5H55.988Z" fill="white"/>
<path d="M92.5696 184.5V143.409H108.781C111.898 143.409 114.553 144.004 116.747 145.195C118.94 146.372 120.612 148.01 121.763 150.11C122.926 152.197 123.508 154.605 123.508 157.333C123.508 160.062 122.92 162.47 121.743 164.556C120.565 166.643 118.86 168.268 116.626 169.432C114.406 170.596 111.717 171.178 108.561 171.178H98.2276V164.215H107.156C108.828 164.215 110.206 163.928 111.289 163.353C112.386 162.764 113.202 161.955 113.737 160.925C114.285 159.882 114.56 158.684 114.56 157.333C114.56 155.969 114.285 154.779 113.737 153.762C113.202 152.732 112.386 151.936 111.289 151.374C110.192 150.799 108.801 150.512 107.116 150.512H101.257V184.5H92.5696Z" fill="white"/>
<path d="M127.586 150.572V143.409H161.334V150.572H148.754V184.5H140.166V150.572H127.586Z" fill="white"/>
<path d="M55.988 184.5V143.409H72.1997C75.3163 143.409 77.9714 144.004 80.1651 145.195C82.3587 146.372 84.0307 148.01 85.1811 150.11C86.3448 152.197 86.9266 154.605 86.9266 157.333C86.9266 160.062 86.3381 162.47 85.161 164.556C83.9839 166.643 82.2785 168.268 80.0447 169.432C77.8243 170.596 75.1357 171.178 71.979 171.178H61.6461V164.215H70.5745C72.2465 164.215 73.6242 163.928 74.7077 163.353C75.8045 162.764 76.6204 161.955 77.1555 160.925C77.7039 159.882 77.9781 158.684 77.9781 157.333C77.9781 155.969 77.7039 154.779 77.1555 153.762C76.6204 152.732 75.8045 151.936 74.7077 151.374C73.6109 150.799 72.2198 150.512 70.5344 150.512H64.6757V184.5H55.988Z" fill="white"/>
<path d="M92.5696 184.5V143.409H108.781C111.898 143.409 114.553 144.004 116.747 145.195C118.94 146.372 120.612 148.01 121.763 150.11C122.926 152.197 123.508 154.605 123.508 157.333C123.508 160.062 122.92 162.47 121.743 164.556C120.565 166.643 118.86 168.268 116.626 169.432C114.406 170.596 111.717 171.178 108.561 171.178H98.2276V164.215H107.156C108.828 164.215 110.206 163.928 111.289 163.353C112.386 162.764 113.202 161.955 113.737 160.925C114.285 159.882 114.56 158.684 114.56 157.333C114.56 155.969 114.285 154.779 113.737 153.762C113.202 152.732 112.386 151.936 111.289 151.374C110.192 150.799 108.801 150.512 107.116 150.512H101.257V184.5H92.5696Z" fill="white"/>
<path d="M127.586 150.572V143.409H161.334V150.572H148.754V184.5H140.166V150.572H127.586Z" fill="white"/>
<defs>
<linearGradient id="paint0_linear_2_70" x1="127.75" y1="15" x2="127.75" y2="241" gradientUnits="userSpaceOnUse">
<stop stop-color="#FFC400"/>
<stop offset="1" stop-color="#997600"/>
</linearGradient>
<linearGradient id="paint1_linear_2_70" x1="127.75" y1="15" x2="127.75" y2="241" gradientUnits="userSpaceOnUse">
<stop stop-color="#FF7500"/>
<stop offset="1" stop-color="#994600"/>
</linearGradient>
<linearGradient id="paint2_linear_2_70" x1="127.75" y1="15" x2="127.75" y2="241" gradientUnits="userSpaceOnUse">
<stop stop-color="#232323"/>
<stop offset="1" stop-color="#2C2C2C" stop-opacity="0.22"/>
</linearGradient>
</defs>
</svg>
